<svg width="26" height="26" viewBox="0 0 26 26" fill="none" xmlns="http://www.w3.org/2000/svg">
<path d="M25.6132 5.3483C24.7087 5.74913 23.7369 6.01996 22.7153 6.14238C23.7694 5.51166 24.558 4.51897 24.934 3.34955C23.9437 3.93779 22.8598 4.35184 21.7295 4.57371C20.9694 3.76215 19.9626 3.22423 18.8655 3.04348C17.7684 2.86272 16.6423 3.04924 15.662 3.57407C14.6817 4.0989 13.9022 4.93269 13.4443 5.94598C12.9865 6.95926 12.876 8.09536 13.13 9.17788C11.1233 9.07713 9.16026 8.55556 7.3682 7.64703C5.57615 6.7385 3.99515 5.4633 2.72783 3.90421C2.29449 4.65171 2.04533 5.51838 2.04533 6.44138C2.04484 7.27229 2.24946 8.09048 2.64103 8.82334C3.03259 9.5562 3.599 10.1811 4.28999 10.6425C3.48863 10.617 2.70494 10.4005 2.00416 10.011V10.076C2.00408 11.2413 2.40719 12.3709 3.14511 13.2729C3.88302 14.1749 4.91028 14.7938 6.05258 15.0246C5.30917 15.2258 4.52977 15.2555 3.77324 15.1113C4.09553 16.114 4.72332 16.9909 5.56872 17.6191C6.41413 18.2474 7.43482 18.5955 8.48791 18.6148C6.70023 20.0182 4.49245 20.7794 2.21974 20.776C1.81716 20.7762 1.41491 20.7526 1.01508 20.7056C3.32201 22.1889 6.00744 22.9761 8.75008 22.973C18.0342 22.973 23.1097 15.2835 23.1097 8.61455C23.1097 8.39788 23.1042 8.17905 23.0945 7.96238C24.0817 7.24844 24.9339 6.36435 25.6111 5.35155L25.6132 5.3483Z" fill="white"/>
</svg>
