<svg width="26" height="26" viewBox="0 0 26 26" fill="none" xmlns="http://www.w3.org/2000/svg">
<g clip-path="url(#clip0_812_602)">
<path fill-rule="evenodd" clip-rule="evenodd" d="M25.4042 6.44363C25.584 5.85213 25.4042 5.41663 24.5429 5.41663H21.6992C20.9755 5.41663 20.6418 5.79254 20.4609 6.20746C20.4609 6.20746 19.0147 9.66979 16.9661 11.9188C16.3031 12.571 16.0019 12.7779 15.6401 12.7779C15.4592 12.7779 15.1873 12.571 15.1873 11.9784V6.44363C15.1873 5.73296 14.9879 5.41663 14.3856 5.41663H9.91358C9.46183 5.41663 9.18992 5.74596 9.18992 6.05904C9.18992 6.73179 10.2148 6.88779 10.3198 8.78146V12.896C10.3198 13.7984 10.1541 13.962 9.79225 13.962C8.82808 13.962 6.48267 10.4834 5.09058 6.50321C4.82083 5.72863 4.54783 5.41663 3.82092 5.41663H0.975C0.1625 5.41663 0 5.79254 0 6.20746C0 6.94629 0.964167 10.6166 4.49042 15.471C6.84125 18.786 10.1508 20.5833 13.1658 20.5833C14.9738 20.5833 15.197 20.1846 15.197 19.4967V16.991C15.197 16.1925 15.3682 16.0333 15.9413 16.0333C16.3638 16.0333 17.0863 16.2413 18.7742 17.8392C20.7025 19.734 21.0199 20.5833 22.1054 20.5833H24.9492C25.7617 20.5833 26.169 20.1846 25.935 19.396C25.6772 18.6116 24.7563 17.473 23.5354 16.1221C22.8724 15.353 21.8779 14.5242 21.5757 14.1093C21.1543 13.5774 21.2745 13.3401 21.5757 12.8667C21.5757 12.8667 25.0423 8.07188 25.4031 6.44363H25.4042Z" fill="white"/>
</g>
<defs>
<clipPath id="clip0_812_602">
<rect width="26" height="26" fill="white"/>
</clipPath>
</defs>
</svg>
